<svg xmlns="http://www.w3.org/2000/svg" version="1.1" xmlns:xlink="http://www.w3.org/1999/xlink" xmlns:svgjs="http://svgjs.dev/svgjs" width="100%" height="100%" viewBox="0 0 1000 600"><rect width="1000" height="600" x="0" y="0" fill="#002fa7"/><g><rect width="333.3333333333333" height="333.3333333333333" rx="13.333333333333334" ry="13.333333333333334" y="248.06901957004266" fill="#3333dd" transform="matrix(0.553472476770416,0,0,0.553472476770416,0,70.45519082856285)" x="225.84677124023435"/><path d="M345.093557593647 489.73569983523356L345.093557593647 339.7356973899148L381.31150690202526 339.7356973899148Q404.16407137713475 339.7356973899148 417.0807382543705 351.6267232247894Q429.9974051316063 363.517749059664 429.9974051316063 385.6651853181502L429.9974051316063 385.6651853181502Q429.9974051316063 403.42159586402767 422.40125116161903 414.73569861257414Q414.77304590905794 426.0498013611206 402.30509698785517 430.88954502976236L402.30509698785517 430.88954502976236L439.93330272948 489.73569983523356L419.8691998382899 489.73569983523356L385.47817363661744 434.1267245697147L362.62560916150795 434.1267245697147L362.62560916150795 489.73569983523356L345.093557593647 489.73569983523356ZM362.62560916150795 423.742109015808L381.31150690202526 423.742109015808Q396.3115071465571 423.742109015808 403.9397123991182 415.18441656860716Q411.5358663691055 406.6587754039801 411.5358663691055 386.33826225219974L411.5358663691055 386.33826225219974Q411.5358663691055 349.89595396580495 379.2281735347292 349.89595396580495L379.2281735347292 349.89595396580495L362.62560916150795 349.89595396580495L362.62560916150795 423.742109015808Z " fill="#00ffac" transform="matrix(0.553472476770416,0,0,0.553472476770416,0,70.45519082856285)"/><path d="M684.2598646527584 489.7356888988956Q664.7547184286747 489.7356888988956 653.6476212732936 477.5449725088433Q642.5134336370458 465.35425611879094 642.5134336370458 440.9728233386863L642.5134336370458 440.9728233386863Q642.5134336370458 416.40175719251414 653.2412640602919 402.34179762265376Q663.9690944835379 388.3089285336602 682.4989833964174 388.3089285336602L682.4989833964174 388.3089285336602Q699.2950815338229 388.3089285336602 708.3433021433284 399.9036543446433Q717.4186132337007 411.5254706364932 717.4186132337007 432.7914981169178L717.4186132337007 432.7914981169178Q717.4186132337007 436.47580351480025 717.0393465015658 438.8326753502104Q716.632989288564 441.16245670475377 716.4433559224965 441.758447283823L716.4433559224965 441.758447283823L657.3590171520428 441.758447283823Q657.3590171520428 481.14800646412533 685.8311125430317 481.14800646412533L685.8311125430317 481.14800646412533Q693.6331710326652 481.14800646412533 699.1867196103557 478.3305964539799Q704.7402681880463 475.48609596296774 707.8556734877262 472.2894192206873Q710.998169268273 469.0656519975402 710.998169268273 468.46966141847093L710.998169268273 468.46966141847093L716.632989288564 473.1563146084244Q716.632989288564 473.9419385535611 712.9486838906815 478.14096308791244Q709.2372880119323 482.31289714139706 702.0041296205012 486.02429302014633Q694.7980617099369 489.7356888988956 684.2598646527584 489.7356888988956L684.2598646527584 489.7356888988956ZM657.5486505181103 433.55003158118774L704.1713680898439 433.55003158118774L704.3610014559114 429.86572618330524Q704.3610014559114 396.70697760236294 682.4989833964174 396.70697760236294L682.4989833964174 396.70697760236294Q671.0126195089015 396.70697760236294 664.7547184286747 405.7551982118684Q658.5239078293146 414.8305093022407 657.5486505181103 433.55003158118774L657.5486505181103 433.55003158118774ZM762.2804495490932 489.7356888988956Q751.7422524919148 489.7356888988956 746.6763325698262 483.20688301000087Q741.6104126477378 476.6780771211062 741.6104126477378 461.64286024004167L741.6104126477378 461.64286024004167L741.6104126477378 399.82238290204293L731.478572803561 399.82238290204293L731.478572803561 391.6139671994077L741.6104126477378 390.44907652213607L746.8659659358937 359.43047592966957L755.8600055836657 359.43047592966957L755.8600055836657 390.2594431560686L780.8103384619728 390.2594431560686L780.8103384619728 399.82238290204293L755.8600055836657 399.82238290204293L755.8600055836657 458.14818820822666Q755.8600055836657 470.82653325388105 758.298148861676 475.5944578864349Q760.7362921396866 480.3623825189887 766.7774693729793 480.3623825189887L766.7774693729793 480.3623825189887Q771.6537559290002 480.3623825189887 775.554785173817 479.38712520778444Q779.4558144186337 478.4118678965803 779.4558144186337 478.2222345305128L779.4558144186337 478.2222345305128L780.4310717298379 486.02429302014633Q780.0247145168362 486.430650233148 777.9929284518273 487.2975456208851Q775.934051905952 488.1644410086222 771.9517512185348 488.95006495375884Q767.942360050251 489.7356888988956 762.2804495490932 489.7356888988956L762.2804495490932 489.7356888988956ZM801.6970992102624 487.7851742764872L801.6970992102624 390.2594431560686L812.2082057865741 390.2594431560686L814.3754442559168 410.3605799592215Q814.3754442559168 409.1685988010831 816.5968636869932 403.61505022339253Q818.845373598936 398.0615016457021 823.5320267888894 393.1852150896811Q828.218679978843 388.3089285336602 835.6143812554747 388.3089285336602L835.6143812554747 388.3089285336602Q839.3257771342239 388.3089285336602 844.0124303241776 389.582181134399Q848.699083514131 390.8554337351378 850.0536075574701 391.42433383334026L850.0536075574701 391.42433383334026L848.699083514131 402.1521642565863Q847.3174689899249 401.5832641583838 842.5495443573711 400.3912830002454Q837.7816197248173 399.2263923229737 834.0702238460681 399.2263923229737L834.0702238460681 399.2263923229737Q828.4083133449105 399.2263923229737 824.3989221766265 403.04615012519014Q820.4166214892095 406.83881744653974 818.466106866801 411.11911342349146Q816.5155922443928 415.4264998813099 815.9196016653236 417.56664786978575L815.9196016653236 417.56664786978575L815.9196016653236 487.7851742764872L801.6970992102624 487.7851742764872ZM900.1980876418852 489.7356888988956Q879.9073174726648 489.7356888988956 869.2607584920192 476.4613532741719Q858.6412899922402 463.2141081303151 858.6412899922402 439.0223087162779L858.6412899922402 439.0223087162779Q858.6412899922402 414.8305093022407 869.2607584920192 401.5832641583838Q879.9073174726648 388.3089285336602 900.1980876418852 388.3089285336602L900.1980876418852 388.3089285336602Q920.4617673302389 388.3089285336602 931.1083263108846 401.5832641583838Q941.7277948106635 414.8305093022407 941.7277948106635 439.0223087162779L941.7277948106635 439.0223087162779Q941.7277948106635 463.0244747642476 930.9186929448172 476.38008183157154Q920.0825005981039 489.7356888988956 900.1980876418852 489.7356888988956L900.1980876418852 489.7356888988956ZM900.1980876418852 481.14800646412533Q913.851689998744 481.14800646412533 920.2721339641714 470.7181713304139Q926.7196684104658 460.2883361967025 926.7196684104658 439.0223087162779L926.7196684104658 439.0223087162779Q926.7196684104658 417.9459146019207 920.2721339641714 407.43480802560896Q913.851689998744 396.89661096843037 900.1980876418852 396.89661096843037L900.1980876418852 396.89661096843037Q886.5444852850267 396.89661096843037 880.0969508387323 407.3264461021418Q873.6494163924381 417.75628123585324 873.6494163924381 439.0223087162779L873.6494163924381 439.0223087162779Q873.6494163924381 460.2883361967025 880.0969508387323 470.7181713304139Q886.5444852850267 481.14800646412533 900.1980876418852 481.14800646412533L900.1980876418852 481.14800646412533ZM967.6804754810416 487.7851742764872L967.6804754810416 399.82238290204293L957.521545155998 399.82238290204293L957.521545155998 391.6139671994077L967.6804754810416 390.44907652213607L967.6804754810416 376.41620743314246Q967.6804754810416 357.4799613072612 973.5320193482667 348.62137406382317Q979.3835632154919 339.73569633951837 993.2267989384179 339.73569633951837L993.2267989384179 339.73569633951837Q997.9134521283713 339.73569633951837 1002.0041147392556 341.0089489402572Q1006.0947773501398 342.28220154099597 1008.6412825516175 343.6367255843351Q1011.1606972722282 345.01834010854105 1011.7566878512976 345.397606840676L1011.7566878512976 345.397606840676L1009.8061732288891 353.010031964242Q1009.2101826498199 352.60367475124025 1007.2596680274116 351.54714599743573Q1005.3091534050031 350.4635267627644 1002.193748105323 349.48826945156026Q999.0783428056432 348.513012140356 995.7733041398956 348.513012140356L995.7733041398956 348.513012140356Q990.490660370873 348.513012140356 987.5648884372604 351.05951734183367Q984.6391165036478 353.57893206244444 983.1762305368416 360.0264665087388Q981.7133445700351 366.4740009550331 981.7133445700351 377.9603648425491L981.7133445700351 377.9603648425491L981.7133445700351 390.2594431560686L1009.9958065949565 390.2594431560686L1009.9958065949565 399.82238290204293L981.7133445700351 399.82238290204293L981.7133445700351 487.7851742764872L967.6804754810416 487.7851742764872ZM1058.9483055212336 489.7356888988956Q1038.6846258328796 489.7356888988956 1028.038066852234 476.4613532741719Q1017.4185983524551 463.2141081303151 1017.4185983524551 439.0223087162779L1017.4185983524551 439.0223087162779Q1017.4185983524551 414.8305093022407 1028.038066852234 401.5832641583838Q1038.6846258328796 388.3089285336602 1058.9483055212336 388.3089285336602L1058.9483055212336 388.3089285336602Q1079.2390756904538 388.3089285336602 1089.8856346710995 401.5832641583838Q1100.5051031708786 414.8305093022407 1100.5051031708786 439.0223087162779L1100.5051031708786 439.0223087162779Q1100.5051031708786 463.0244747642476 1089.6689108241653 476.38008183157154Q1078.8598089583188 489.7356888988956 1058.9483055212336 489.7356888988956L1058.9483055212336 489.7356888988956ZM1058.9483055212336 481.14800646412533Q1072.6019078780919 481.14800646412533 1079.0494423243863 470.7181713304139Q1085.4969767706807 460.2883361967025 1085.4969767706807 439.0223087162779L1085.4969767706807 439.0223087162779Q1085.4969767706807 417.9459146019207 1079.0494423243863 407.43480802560896Q1072.6019078780919 396.89661096843037 1058.9483055212336 396.89661096843037L1058.9483055212336 396.89661096843037Q1045.2947031643748 396.89661096843037 1038.8742591989471 407.3264461021418Q1032.4267247526532 417.75628123585324 1032.4267247526532 439.0223087162779L1032.4267247526532 439.0223087162779Q1032.4267247526532 460.2883361967025 1038.8742591989471 470.7181713304139Q1045.2947031643748 481.14800646412533 1058.9483055212336 481.14800646412533L1058.9483055212336 481.14800646412533ZM1122.3400307495058 487.7851742764872L1122.3400307495058 390.2594431560686L1132.8782278066842 390.2594431560686L1135.01837579516 410.3605799592215Q1135.01837579516 409.1685988010831 1137.266885707103 403.61505022339253Q1139.515395619046 398.0615016457021 1144.2020488089993 393.1852150896811Q1148.888701998953 388.3089285336602 1156.2844032755847 388.3089285336602L1156.2844032755847 388.3089285336602Q1159.9957991543338 388.3089285336602 1164.6824523442874 389.582181134399Q1169.3691055342406 390.8554337351378 1170.7236295775797 391.42433383334026L1170.7236295775797 391.42433383334026L1169.3691055342406 402.1521642565863Q1167.9874910100348 401.5832641583838 1163.219566377481 400.3912830002454Q1158.4245512640605 399.2263923229737 1154.7402458661782 399.2263923229737L1154.7402458661782 399.2263923229737Q1149.0783353650204 399.2263923229737 1145.0689441967365 403.04615012519014Q1141.0866435093194 406.83881744653974 1139.1361288869111 411.11911342349146Q1137.1856142645024 415.4264998813099 1136.5896236854333 417.56664786978575L1136.5896236854333 417.56664786978575L1136.5896236854333 487.7851742764872L1122.3400307495058 487.7851742764872ZM1258.4967875859566 487.7851742764872L1245.8184425403024 487.7851742764872L1220.272119082926 390.2594431560686L1236.0658694282602 390.2594431560686L1254.4061249750725 469.85127594267686L1277.6226670779056 390.2594431560686L1288.7297642332865 390.2594431560686L1313.1111970133911 469.85127594267686L1332.2370765053397 390.2594431560686L1343.1545402946535 390.2594431560686L1316.8225928921402 487.7851742764872L1304.3338812125535 487.7851742764872L1281.5236963227221 409.1685988010831L1258.4967875859566 487.7851742764872ZM1388.8020005551825 489.7356888988956Q1374.5524076192546 489.7356888988956 1366.7503491296216 481.82526848579494Q1358.948290639988 473.9419385535611 1358.948290639988 458.33782157429414L1358.948290639988 458.33782157429414L1358.948290639988 390.2594431560686L1373.1978835759155 390.2594431560686L1373.1978835759155 455.4120496406816Q1373.1978835759155 479.38712520778444 1393.4615632642694 479.38712520778444L1393.4615632642694 479.38712520778444Q1400.5050882896326 479.38712520778444 1405.5710082117212 477.1657057767083Q1410.6369281338098 474.9171958647653 1413.6710619908895 472.3706906632877Q1416.6781053671025 469.85127594267686 1416.6781053671025 469.4449187296752L1416.6781053671025 469.4449187296752L1416.6781053671025 390.2594431560686L1430.92769830303 390.2594431560686L1430.92769830303 487.7851742764872L1419.0349772025124 487.7851742764872L1417.0844625801042 478.4118678965803Q1414.5379573786263 481.9336304092621 1407.7111562001974 485.83465965407885Q1400.884355021768 489.7356888988956 1388.8020005551825 489.7356888988956L1388.8020005551825 489.7356888988956ZM1484.1604932062587 489.7356888988956Q1473.6493866299465 489.7356888988956 1468.5563762269917 483.20688301000087Q1463.490456304903 476.6780771211062 1463.490456304903 461.64286024004167L1463.490456304903 461.64286024004167L1463.490456304903 399.82238290204293L1453.3586164607264 399.82238290204293L1453.3586164607264 391.6139671994077L1463.490456304903 390.44907652213607L1468.773100073926 359.43047592966957L1477.740049240831 359.43047592966957L1477.740049240831 390.2594431560686L1502.6903821191381 390.2594431560686L1502.6903821191381 399.82238290204293L1477.740049240831 399.82238290204293L1477.740049240831 458.14818820822666Q1477.740049240831 470.82653325388105 1480.1781925188416 475.5944578864349Q1482.6163357968521 480.3623825189887 1488.6575130301444 480.3623825189887L1488.6575130301444 480.3623825189887Q1493.5337995861655 480.3623825189887 1497.434828830982 479.38712520778444Q1501.335858075799 478.4118678965803 1501.335858075799 478.2222345305128L1501.335858075799 478.2222345305128L1502.3111153870032 486.02429302014633Q1501.9318486548682 486.430650233148 1499.8729721089926 487.2975456208851Q1497.8140955631175 488.1644410086222 1493.8317948757003 488.95006495375884Q1489.8224037074165 489.7356888988956 1484.1604932062587 489.7356888988956L1484.1604932062587 489.7356888988956ZM1533.8986160776722 447.4203577849806Q1532.923358766468 441.9480806498904 1532.923358766468 435.7172700505304L1532.923358766468 435.7172700505304Q1532.923358766468 427.5088543478951 1535.0905972358105 421.95530577020463Q1537.2307452242867 416.40175719251414 1540.4545124474334 412.79872323723197Q1543.651189189714 409.1685988010831 1549.1234663248042 404.5090360919964L1549.1234663248042 404.5090360919964Q1554.5957434598945 399.82238290204293 1557.602786836107 396.4089823128283Q1560.6369206931868 392.9955817236136 1562.7770686816625 387.5233045885235Q1564.9172166701387 382.0781179343001 1564.9172166701387 374.2760594446666L1564.9172166701387 374.2760594446666Q1564.9172166701387 362.7626050762839 1559.6616633819826 355.7461705317871Q1554.3790196129598 348.7026455064235 1543.271922457579 348.7026455064235L1543.271922457579 348.7026455064235Q1536.255487913082 348.7026455064235 1530.7832107779923 350.9511554183665Q1525.3380241237687 353.1996653303095 1521.924623534554 355.7461705317871Q1518.5112229453393 358.2655852523979 1518.5112229453393 358.67194246539964L1518.5112229453393 358.67194246539964L1516.939975055066 350.2738933966969Q1516.939975055066 349.89462666456194 1520.94936622335 347.1584880970169Q1524.931666910767 344.4223495294718 1531.568834723129 342.0925681749285Q1538.2060025354908 339.73569633951837 1546.793684970261 339.73569633951837L1546.793684970261 339.73569633951837Q1558.2800488577768 339.73569633951837 1566.0008359048097 344.3139876060047Q1573.6945324709764 348.9193693533578 1577.2975664262585 356.3150706299895Q1580.9276908624074 363.73786238748806 1580.9276908624074 372.3255448222583L1580.9276908624074 372.3255448222583Q1580.9276908624074 381.4821273552309 1578.0831903713952 387.92966180152524Q1575.2657803612497 394.35010576695277 1571.1751177503656 398.3594969352367Q1567.0573646586145 402.34179762265376 1560.230563480185 407.62444139167644L1560.230563480185 407.62444139167644Q1553.4037623017557 412.69036131376487 1549.4214616143386 416.6997524820487Q1545.4120704460547 420.6820531694658 1542.5946604359096 427.02122569229306Q1539.7501599448974 433.36039821512026 1539.7501599448974 442.5440712289597L1539.7501599448974 442.5440712289597Q1539.7501599448974 445.25311931563795 1539.9668837918316 446.82436720591136L1539.9668837918316 446.82436720591136L1533.8986160776722 447.4203577849806ZM1537.6100119564212 489.5460555328281Q1534.3049732906738 489.5460555328281 1531.568834723129 487.18918369741795L1531.568834723129 487.18918369741795Q1528.8326961555836 484.6697689768071 1528.8326961555836 480.57910636592294L1528.8326961555836 480.57910636592294Q1528.8326961555836 476.4613532741719 1531.568834723129 473.9419385535611L1531.568834723129 473.9419385535611Q1534.3049732906738 471.585066718151 1537.6100119564212 471.585066718151L1537.6100119564212 471.585066718151Q1541.1317744691032 471.585066718151 1543.8679130366481 473.9419385535611L1543.8679130366481 473.9419385535611Q1546.3873277572588 476.4613532741719 1546.3873277572588 480.57910636592294L1546.3873277572588 480.57910636592294Q1546.3873277572588 484.6697689768071 1543.8679130366481 487.18918369741795L1543.8679130366481 487.18918369741795Q1541.1317744691032 489.5460555328281 1537.6100119564212 489.5460555328281L1537.6100119564212 489.5460555328281Z " fill="#00ffac" transform="matrix(0.553472476770416,0,0,0.553472476770416,0,70.45519082856285)"/></g></svg>